# xmcd
#
# Track frame offsets:
#	150
#	10518
#	21523
#	36855
#	49605
#	64269
#	80840
#	95725
#	109542
#	128756
#	144628
#	157684
#
# Disc length: 2299 seconds
# Revision: 0
# Processed by: cddbd v1.5.2PL0 Copyright (c) Steve Scherf et al.
# Submitted via: dBpowerAMP V12.0
#
DISCID=9708f90c
DTITLE=The Grascals - Straighten the Curves
DYEAR=2019
DGENRE=Bluegrass
TTITLE0=My Virginia Mama
TTITLE1=Callin' Your Name
TTITLE2=Don't Leave Your Memory Behind
TTITLE3=Straighten The Curves
TTITLE4=They Laughed
TTITLE5=Heartbreak Hall Of Fame
TTITLE6=Drivin' My Life Away
TTITLE7=Haggard
TTITLE8=AndiWayne
TTITLE9=What Does God Look Like
TTITLE10=Who Needs You
TTITLE11=The Shepherd of My Valley (What Would I Do Without Jesus)
EXTD=
EXTT0=
EXTT1=
EXTT2=
EXTT3=
EXTT4=
EXTT5=
EXTT6=
EXTT7=
EXTT8=
EXTT9=
EXTT10=
EXTT11=
PLAYORDER=
